:version 1.10
:name ASF
:units
  mass 1
  length 1
  angle deg
:documentation
  ASF file generated by Kaydara
:root
  axis xyz
  order  tx ty tz rx ry rz
  position 0 0 0
  orientation 0 0 0
:bonedata
  begin
    id 1
    name RightUpLegDummy
    direction -0.718183 -0.695806 0.00816078
    length 4.904
    axis 0 0 0 xyz
  end
  begin
    id 2
    name RightUpLeg
    direction 3.53373e-006 -0.995788 0.0916898
    length 17.4976
    axis -3.49089 -0.000906625 0.000286804 xyz
    dof rx ry rz
  end
  begin
    id 3
    name RightLeg
    direction 0.00371092 -0.995096 -0.0988419
    length 16.5821
    axis 3.68512 0.0193738 -0.131023 xyz
    dof rx ry rz
  end
  begin
    id 4
    name RightFoot
    direction 0.00079151 -0.46099 0.887405
    length 3.77069
    axis 4.81691e-005 -0.120479 -0.188788 xyz
    dof rx ry rz
  end
  begin
    id 5
    name RightToes
    direction 0 0 0
    length 0
    axis 0 0 0 xyz
    dof rx ry rz
  end
  begin
    id 6
    name SpineDummy
    direction 8.3039e-015 1 4.57515e-016
    length 4.6813
    axis 0 0 0 xyz
  end
  begin
    id 7
    name Spine
    direction -3.15643e-008 0.999988 0.00495137
    length 10.1015
    axis -0.001389 0.000121418 2.40972e-006 xyz
    dof rx ry rz
  end
  begin
    id 8
    name Spine1
    direction 0 0 0
    length 0
    axis -0.001389 0.000121451 1.30017e-006 xyz
    dof rx ry rz
  end
  begin
    id 9
    name HEadDummy
    direction -1.99912e-008 0.999999 0.00127422
    length 3.43865
    axis -0.001389 0.000121451 1.30017e-006 xyz
  end
  begin
    id 10
    name HEad
    direction 0 0 0
    length 0
    axis 0 0 0 xyz
    dof rx ry rz
  end
  begin
    id 11
    name LeftShoulder1Dummy
    direction 0.998891 -0.0402509 -0.0244456
    length 3.5433
    axis -0.001389 0.000121451 1.30017e-006 xyz
  end
  begin
    id 12
    name LeftShoulder1
    direction 0.99951 -0.000327763 0.0313091
    length 4.05031
    axis -0.001389 0.000121451 1.30017e-006 xyz
    dof rx ry rz
  end
  begin
    id 13
    name LeftArm
    direction 0.998561 -0.00100056 -0.0536182
    length 10.3537
    axis -23.1894 0.134784 0.967509 xyz
    dof rx ry rz
  end
  begin
    id 14
    name LeftForeArm
    direction 0.998903 0.00866432 0.046012
    length 8.70632
    axis -9.91835 -0.06569 -0.177794 xyz
    dof rx ry rz
  end
  begin
    id 15
    name LeftHand
    direction 0 0 0
    length 0
    axis 0 0 0 xyz
    dof rx ry rz
  end
  begin
    id 16
    name RightShoulderDummy
    direction -0.998891 -0.0402509 -0.0244414
    length 3.5433
    axis -0.001389 0.000121451 1.30017e-006 xyz
  end
  begin
    id 17
    name RightShoulder
    direction -0.99951 -0.000327807 0.0313133
    length 4.05031
    axis 0.215806 0.000203643 -0.0068026 xyz
    dof rx ry rz
  end
  begin
    id 18
    name RightArm
    direction -0.998573 -0.000999564 -0.053403
    length 10.3947
    axis -23.2009 -0.134239 -0.964101 xyz
    dof rx ry rz
  end
  begin
    id 19
    name RightForeArm
    direction -0.998898 0.00868028 0.0461306
    length 8.68355
    axis -9.92322 0.0658061 0.178868 xyz
    dof rx ry rz
  end
  begin
    id 20
    name RightHand
    direction 0 0 0
    length 0
    axis 0 0 0 xyz
    dof rx ry rz
  end
  begin
    id 21
    name LeftUpLegDummy
    direction 0.718183 -0.695806 0.00816078
    length 4.904
    axis 0 0 0 xyz
  end
  begin
    id 22
    name LeftUpLeg
    direction -6.81752e-006 -0.995793 0.0916337
    length 17.4976
    axis -3.48766 0.00143442 -0.000524262 xyz
    dof rx ry rz
  end
  begin
    id 23
    name LeftLeg
    direction -0.00601358 -0.995091 -0.0987824
    length 16.5821
    axis 3.68178 -0.00654042 -0.000285133 xyz
    dof rx ry rz
  end
  begin
    id 24
    name LeftFoot
    direction -0.00417578 -0.460984 0.887399
    length 3.77069
    axis 1.87233e-006 4.66016e-005 -8.6538e-006 xyz
    dof rx ry rz
  end
  begin
    id 25
    name LeftToes
    direction 0 0 0
    length 0
    axis 0 0 0 xyz
    dof rx ry rz
  end
:hierarchy
  begin
    root RightUpLegDummy SpineDummy LeftUpLegDummy
    RightUpLegDummy RightUpLeg
    RightUpLeg RightLeg
    RightLeg RightFoot
    RightFoot RightToes
    SpineDummy Spine
    Spine Spine1
    Spine1 HEadDummy LeftShoulder1Dummy RightShoulderDummy
    HEadDummy HEad
    LeftShoulder1Dummy LeftShoulder1
    LeftShoulder1 LeftArm
    LeftArm LeftForeArm
    LeftForeArm LeftHand
    RightShoulderDummy RightShoulder
    RightShoulder RightArm
    RightArm RightForeArm
    RightForeArm RightHand
    LeftUpLegDummy LeftUpLeg
    LeftUpLeg LeftLeg
    LeftLeg LeftFoot
    LeftFoot LeftToes
  end

:SAMPLES-PER-SECOND 30
:FULLY-SPECIFIED
:DEGREES
66
root  49.6497 39.4448 0.186332 -92.9515 -87.5715 87.8347
RightUpLeg  -20.6722 -2.12554 -4.45417
RightLeg  34.56 -2.44466 -2.06498
RightFoot  0.344435 -0.666151 6.52306
RightToes  0.000481922 0.542163 -0.142578
Spine  8.22001 -1.62834 -5.97244
Spine1  9.73148 -3.33 3.50226
HEad  -12.5281 5.607 -1.37887
LeftShoulder1  9.65286 -13.5283 -49.481
LeftArm  1.6987 0.953484 -22.255
LeftForeArm  34.101 -17.7123 -4.79473
LeftHand  -0.25398 0.0180481 5.50724
RightShoulder  5.72465 9.47477 38.0623
RightArm  -7.08145 -25.0901 30.2335
RightForeArm  17.4616 9.09142 6.0998
RightHand  -0.993165 2.74552 -14.3825
LeftUpLeg  7.87717 4.35898 -6.15553
LeftLeg  9.53167 16.0553 -3.76764
LeftFoot  -14.1127 0.132664 1.99755
LeftToes  1.06245e-005 4.65869e-005 -8.65513e-006
67
root  48.4689 39.2877 0.358495 -87.3353 -87.5699 82.4732
RightUpLeg  -20.6687 -5.83622 -2.55221
RightLeg  23.4872 -1.48138 -1.07938
RightFoot  0.0999348 -0.631281 6.30284
RightToes  0.000481922 0.542163 -0.142578
Spine  8.15201 -1.85 -6.19597
Spine1  9.53576 -3.71575 4.20846
HEad  -12.7213 5.67556 -1.25748
LeftShoulder1  9.61468 -13.6013 -49.0751
LeftArm  1.88225 -2.0899 -22.0131
LeftForeArm  32.5938 -19.256 -4.21857
LeftHand  -0.25398 0.0180481 5.50724
RightShoulder  5.59675 9.33626 37.5606
RightArm  -7.45762 -26.7352 29.4646
RightForeArm  16.3219 9.0617 6.00537
RightHand  -0.97709 2.5992 -14.3966
LeftUpLeg  9.73566 4.38469 -6.41139
LeftLeg  9.24468 15.672 -3.70839
LeftFoot  -15.4785 0.163538 1.95863
LeftToes  1.06245e-005 4.65869e-005 -8.65513e-006
68
root  47.2185 39.1351 0.520533 -77.6051 -87.3529 73.2217
RightUpLeg  -20.1896 -9.706 -0.968381
RightLeg  12.0325 -2.09176 0.690836
RightFoot  0.0423529 -0.679691 6.81167
RightToes  0.000481922 0.542163 -0.142578
Spine  7.68613 -2.04235 -6.48506
Spine1  9.44424 -4.10299 5.11516
HEad  -12.6868 5.45994 -1.21519
LeftShoulder1  9.61742 -13.7237 -48.7392
LeftArm  2.20707 -4.63013 -21.8611
LeftForeArm  31.1711 -20.844 -3.75306
LeftHand  -0.25398 0.0180481 5.50724
RightShoulder  5.48107 9.18834 37.1711
RightArm  -8.04426 -27.8835 28.9165
RightForeArm  15.5995 8.52564 5.85563
RightHand  -0.94714 2.34304 -14.404
LeftUpLeg  11.7885 4.44889 -6.53808
LeftLeg  8.36946 14.8226 -4.11852
LeftFoot  -16.496 0.173624 1.66024
LeftToes  1.06245e-005 4.65869e-005 -8.65513e-006
69
root  45.8894 38.9087 0.660175 -66.9196 -86.8895 63.0329
RightUpLeg  -19.2337 -6.47194 -2.55782
RightLeg  2.47269 -10.5001 4.598
RightFoot  0.208272 -0.80178 7.92945
RightToes  0.000481922 0.542163 -0.142578
Spine  7.16622 -2.24428 -6.88138
Spine1  9.25089 -4.50884 5.99051
HEad  -12.5973 5.22661 -1.15669
LeftShoulder1  9.62488 -13.8095 -48.5343
LeftArm  2.46362 -6.62389 -21.7922
LeftForeArm  30.3053 -22.623 -3.4996
LeftHand  -0.25398 0.0180481 5.50724
RightShoulder  5.45229 9.16582 37.0251
RightArm  -8.71269 -28.4872 28.4852
RightForeArm  15.1217 7.62348 5.61283
RightHand  -0.950687 2.22635 -14.6651
LeftUpLeg  13.6831 4.59506 -6.62899
LeftLeg  8.12984 13.6935 -4.43334
LeftFoot  -17.8297 0.175238 1.20989
LeftToes  1.06245e-005 4.65869e-005 -8.65513e-006
70
root  44.5076 38.6323 0.773808 -57.255 -86.4438 53.5247
RightUpLeg  -18.9 -5.90042 -2.48876
RightLeg  -1.85264 -14.4609 6.80146
RightFoot  0.260558 -0.857201 8.42934
RightToes  0.000481922 0.542163 -0.142578
Spine  7.24945 -2.39156 -7.11577
Spine1  8.79557 -4.8928 6.87952
HEad  -12.686 5.01905 -1.16464
LeftShoulder1  9.64208 -13.8746 -48.4384
LeftArm  1.91552 -7.83802 -21.8286
LeftForeArm  30.9187 -24.8882 -3.67575
LeftHand  -0.25398 0.0180481 5.50724
RightShoulder  5.48889 9.22921 37.096
RightArm  -9.34668 -28.4228 28.1988
RightForeArm  14.9978 6.61912 5.31261
RightHand  -0.971947 2.2792 -14.8875
LeftUpLeg  15.4738 4.83739 -6.53159
LeftLeg  9.00622 12.6001 -4.26265
LeftFoot  -19.3035 0.167392 0.737008
LeftToes  1.06245e-005 4.65869e-005 -8.65513e-006
71
root  43.0702 38.3891 0.877768 -43.6564 -86.1714 39.6667
RightUpLeg  -19.2815 -5.79626 -1.48438
RightLeg  0.343814 -16.2525 6.40286
RightFoot  0.440426 -0.683731 6.66222
RightToes  0.000481922 0.542163 -0.142578
Spine  7.84497 -2.55085 -6.67171
Spine1  8.37772 -5.32533 7.76458
HEad  -12.9832 4.76344 -1.33985
LeftShoulder1  9.70946 -13.9823 -48.477
LeftArm  0.698631 -8.02349 -21.942
LeftForeArm  32.7828 -27.7893 -4.22578
LeftHand  -0.25398 0.0180481 5.50724
RightShoulder  5.52 9.25729 37.2404
RightArm  -9.91718 -27.7604 28.1587
RightForeArm  15.1851 5.91229 5.0762
RightHand  -1.02331 2.61087 -15.0377
LeftUpLeg  17.4045 5.86277 -5.62494
LeftLeg  10.6961 10.8743 -3.54584
LeftFoot  -20.1602 0.147416 0.344521
LeftToes  1.06245e-005 4.65869e-005 -8.65513e-006
72
root  41.5049 38.2075 1.00876 -23.4765 -85.9506 19.1017
RightUpLeg  -20.1161 -7.34621 0.800644
RightLeg  6.1407 -15.1604 4.25041
RightFoot  1.84633 -0.217301 2.065
RightToes  0.000481922 0.542163 -0.142578
Spine  8.04408 -2.9058 -4.86678
Spine1  8.36326 -5.74329 8.07757
HEad  -13.3012 4.46121 -1.61709
LeftShoulder1  9.84422 -14.1041 -48.8119
LeftArm  -0.234942 -7.09718 -21.9892
LeftForeArm  34.9901 -31.136 -4.86421
LeftHand  -0.25398 0.0180481 5.50724
RightShoulder  5.55884 9.25148 37.5537
RightArm  -10.2547 -26.7048 28.1943
RightForeArm  15.1375 5.7497 5.00482
RightHand  -1.11068 3.14463 -15.3192
LeftUpLeg  19.5951 8.69525 -3.13138
LeftLeg  12.7328 7.16563 -2.47486
LeftFoot  -20.3064 0.0672872 -0.671042
LeftToes  1.06245e-005 4.65869e-005 -8.65513e-006
